<?xml version="1.0" standalone="no"?>
<!DOCTYPE svg PUBLIC "-//W3C//DTD SVG 20010904//EN"
 "http://www.w3.org/TR/2001/REC-SVG-20010904/DTD/svg10.dtd">
<svg version="1.0" xmlns="http://www.w3.org/2000/svg"
 width="300.000000pt" height="300.000000pt" viewBox="0 0 300.000000 300.000000"
 preserveAspectRatio="xMidYMid meet">
<metadata>
Created by potrace 1.11, written by Peter Selinger 2001-2013
</metadata>
<g transform="translate(0.000000,300.000000) scale(0.100000,-0.100000)"
fill="#000000" stroke="none">
<path d="M1347 2495 c-151 -52 -275 -232 -273 -397 1 -31 -1 -55 -3 -53 -5 6
-41 -41 -41 -54 0 -6 -5 -11 -10 -11 -10 0 -58 -99 -63 -130 -1 -8 -6 -20 -10
-27 -4 -7 -10 -40 -14 -75 -3 -35 -10 -65 -15 -66 -5 -2 -22 -15 -38 -29 -71
-59 -56 -164 28 -193 36 -12 43 -19 48 -50 7 -39 51 -206 61 -230 3 -8 5 -18
5 -22 -1 -4 10 -44 24 -89 14 -45 27 -89 30 -98 18 -77 25 -95 40 -113 11 -11
27 -24 37 -30 30 -16 127 -28 220 -29 48 0 87 -1 88 -2 0 -1 3 -58 5 -127 l4
-125 -49 -23 c-45 -21 -52 -22 -73 -9 -67 42 -171 4 -207 -76 -22 -48 -34
-134 -20 -143 5 -3 7 -9 4 -14 -2 -4 6 -24 20 -44 23 -34 24 -38 10 -74 -17
-43 -26 -113 -18 -142 5 -17 14 -20 64 -20 33 0 59 3 60 8 0 4 2 25 5 46 7 67
26 70 22 4 l-4 -58 343 0 c267 0 343 3 344 13 1 6 2 26 3 44 0 17 6 35 11 40
6 4 7 4 4 0 -4 -4 -1 -27 6 -50 l12 -42 70 -3 70 -3 -4 38 c-5 50 -21 100 -44
141 -19 33 -19 33 5 80 65 129 -18 302 -145 304 -68 1 -86 -2 -108 -21 -21
-19 -22 -19 -61 0 -22 11 -54 22 -70 26 -17 3 -30 11 -31 17 0 6 -3 20 -5 31
-4 17 -10 86 -17 184 -2 19 4 26 28 33 17 5 38 6 47 4 9 -2 18 0 20 4 2 5 19
11 38 14 44 7 251 72 305 96 22 9 69 30 105 46 112 49 111 47 105 139 -6 80
-12 145 -20 220 -11 89 -14 112 -20 148 -4 21 -8 55 -9 76 -1 20 -5 41 -8 46
-3 6 -8 33 -12 60 -12 104 -17 129 -37 228 -34 163 -57 245 -76 271 -31 42
-113 84 -198 101 -76 16 -239 21 -297 10 -25 -5 -28 -2 -28 20 0 28 -32 99
-59 129 -43 49 -140 73 -204 51z"/>
</g>
</svg>
